<svg width="142" height="33" viewBox="0 0 142 33" fill="none" xmlns="http://www.w3.org/2000/svg">
<path d="M6.39553 7.6169V22.1316L8.36538 22.2353V25H0.140381V22.3735L1.28082 22.2698C1.94896 22.2007 2.28303 21.8321 2.28303 21.164V11.5566C2.28303 11.1649 2.21391 10.9 2.07568 10.7618C1.96048 10.6235 1.74161 10.5544 1.41906 10.5544L0.209499 10.4853V7.6169H6.39553ZM2.04112 4.64484C1.55729 4.16102 1.31538 3.55048 1.31538 2.81322C1.31538 2.07597 1.55729 1.46543 2.04112 0.981606C2.52494 0.474744 3.15852 0.221313 3.94185 0.221313C4.72518 0.221313 5.35876 0.474744 5.84259 0.981606C6.34945 1.46543 6.60288 2.07597 6.60288 2.81322C6.60288 3.55048 6.34945 4.16102 5.84259 4.64484C5.35876 5.10563 4.72518 5.33602 3.94185 5.33602C3.15852 5.33602 2.52494 5.10563 2.04112 4.64484Z" fill="white"/>
<path d="M12.3016 28.2831V11.5566C12.3016 11.1649 12.2325 10.9 12.0942 10.7618C11.979 10.6005 11.7602 10.5198 11.4376 10.5198L9.98614 10.4162V7.6169H15.8266V9.86322C16.1952 9.17205 16.8633 8.53847 17.831 7.96249C18.7986 7.38651 19.9506 7.09852 21.2869 7.09852C25.457 7.09852 27.542 10.0245 27.542 15.8765C27.542 18.9868 26.8624 21.3713 25.503 23.0301C24.1437 24.689 22.3006 25.5184 19.9736 25.5184C18.5913 25.5184 17.3587 25.1843 16.2758 24.5162V29.2853L19.0751 29.4235V32.1537H10.1589V29.5272L11.2994 29.4235C11.645 29.3774 11.8984 29.2738 12.0597 29.1125C12.2209 28.9743 12.3016 28.6978 12.3016 28.2831ZM23.2567 16.222C23.2567 12.3745 22.0932 10.4507 19.7663 10.4507C18.7986 10.4507 17.9692 10.7502 17.278 11.3493C16.6099 11.9252 16.2758 12.6164 16.2758 13.4228V21.3713C17.1513 21.9473 18.2111 22.2353 19.4553 22.2353C20.7224 22.2353 21.667 21.6593 22.2891 20.5073C22.9342 19.3554 23.2567 17.9269 23.2567 16.222Z" fill="white"/>
<path d="M32.1508 21.1294V11.5566C32.1508 11.188 32.0816 10.9345 31.9434 10.7963C31.8282 10.635 31.6093 10.5429 31.2868 10.5198L29.8353 10.4162V7.6169H35.6758V10.2088C36.0905 9.31028 36.7356 8.57303 37.6111 7.99705C38.4865 7.39803 39.4888 7.09852 40.6177 7.09852C41.7696 7.09852 42.864 7.35195 43.9008 7.85881V13.0081L40.6868 13.25V11.6603C40.6868 11.1995 40.5716 10.9115 40.3412 10.7963C40.0878 10.6811 39.7767 10.6235 39.4081 10.6235C38.4865 10.6235 37.7263 10.9576 37.1272 11.6257C36.5513 12.2708 36.2633 13.1002 36.2633 14.114V22.1316L39.2699 22.2698V25H30.0081V22.3735L31.1486 22.2698C31.4941 22.2238 31.7476 22.1316 31.9088 21.9934C32.0701 21.8321 32.1508 21.5441 32.1508 21.1294Z" fill="white"/>
<path d="M54.6456 7.09852C56.3735 7.09852 57.7444 7.52474 58.7581 8.37719C59.7718 9.20661 60.2787 10.3816 60.2787 11.9022C60.2787 12.9159 60.0598 13.8145 59.6221 14.5978C59.1843 15.3581 58.6429 15.9571 57.9978 16.3948C57.3527 16.8326 56.5694 17.1897 55.6478 17.4662C54.1042 17.9269 52.3647 18.1573 50.4294 18.1573C50.4985 19.3784 50.8787 20.3691 51.5699 21.1294C52.261 21.8667 53.3208 22.2353 54.7493 22.2353C56.1777 22.2353 57.6061 21.7284 59.0346 20.7147L60.3478 23.514C59.887 23.9287 59.1037 24.3549 57.9978 24.7926C56.9149 25.2304 55.6708 25.4493 54.2654 25.4493C51.4547 25.4493 49.3926 24.6774 48.0794 23.1338C46.7662 21.5671 46.1096 19.4245 46.1096 16.7059C46.1096 13.9872 46.8583 11.7064 48.3559 9.86322C49.8534 8.02009 51.95 7.09852 54.6456 7.09852ZM53.0559 15.0125C53.9083 14.8512 54.6917 14.5171 55.4059 14.0103C56.1201 13.4804 56.4772 12.8583 56.4772 12.1441C56.4772 10.7387 55.786 10.036 54.4037 10.036C53.1135 10.036 52.1228 10.5544 51.4316 11.5912C50.7404 12.6049 50.3603 13.826 50.2912 15.2544C51.3049 15.2314 52.2265 15.1507 53.0559 15.0125Z" fill="white"/>
<path d="M64.646 28.2831V11.5566C64.646 11.1649 64.5769 10.9 64.4387 10.7618C64.3235 10.6005 64.1046 10.5198 63.7821 10.5198L62.3306 10.4162V7.6169H68.171V9.86322C68.5397 9.17205 69.2078 8.53847 70.1755 7.96249C71.1431 7.38651 72.2951 7.09852 73.6313 7.09852C77.8014 7.09852 79.8865 10.0245 79.8865 15.8765C79.8865 18.9868 79.2068 21.3713 77.8475 23.0301C76.4882 24.689 74.6451 25.5184 72.3181 25.5184C70.9357 25.5184 69.7032 25.1843 68.6203 24.5162V29.2853L71.4196 29.4235V32.1537H62.5034V29.5272L63.6438 29.4235C63.9894 29.3774 64.2429 29.2738 64.4041 29.1125C64.5654 28.9743 64.646 28.6978 64.646 28.2831ZM75.6012 16.222C75.6012 12.3745 74.4377 10.4507 72.1107 10.4507C71.1431 10.4507 70.3137 10.7502 69.6225 11.3493C68.9544 11.9252 68.6203 12.6164 68.6203 13.4228V21.3713C69.4958 21.9473 70.5556 22.2353 71.7997 22.2353C73.0669 22.2353 74.0115 21.6593 74.6335 20.5073C75.2786 19.3554 75.6012 17.9269 75.6012 16.222Z" fill="white"/>
<path d="M95.0702 24.3434V21.7169C93.8031 23.514 91.9369 24.4125 89.4717 24.4125C85.9006 24.4125 84.1151 22.4196 84.1151 18.4338V11.4875C84.1151 10.8654 83.8271 10.5429 83.2511 10.5198L82.1452 10.4507V7.6169H88.2276V17.5353C88.2276 18.7564 88.4004 19.6779 88.746 20.3C89.0915 20.922 89.8058 21.2331 90.8886 21.2331C91.9714 21.2331 92.8354 20.899 93.4805 20.2309C94.1487 19.5627 94.4827 18.7564 94.4827 17.8118V11.5566C94.4827 11.1649 94.4136 10.9 94.2754 10.7618C94.1602 10.6005 93.9413 10.5198 93.6188 10.5198L92.5129 10.4507V7.6169H98.5952V24.3434C98.5952 27.1311 97.9156 29.1701 96.5563 30.4603C95.22 31.7505 93.181 32.3956 90.4393 32.3956C87.7207 32.3956 85.6011 32.0154 84.0805 31.2551V26.4515L87.3636 26.175V27.8338C87.3636 28.4559 87.6516 28.8706 88.2276 29.0779C88.8036 29.3083 89.5984 29.4235 90.6121 29.4235C93.5842 29.4235 95.0702 27.7301 95.0702 24.3434Z" fill="white"/>
<path d="M141.235 22.2698V25H135.636V22.7537C134.369 24.5507 132.503 25.4493 130.038 25.4493C126.467 25.4493 124.681 23.4564 124.681 19.4706V11.4875C124.681 10.8654 124.393 10.5429 123.817 10.5198L122.711 10.4507V7.6169H128.794V18.572C128.794 19.7931 128.966 20.7147 129.312 21.3368C129.658 21.9588 130.372 22.2698 131.455 22.2698C132.538 22.2698 133.402 21.9358 134.047 21.2676C134.715 20.5995 135.049 19.7931 135.049 18.8485V11.5566C135.049 11.188 134.98 10.9345 134.841 10.7963C134.726 10.635 134.507 10.5429 134.185 10.5198L133.079 10.4507V7.6169H139.161V21.164C139.161 21.5326 139.219 21.786 139.334 21.9243C139.449 22.0394 139.68 22.1201 140.025 22.1662L141.235 22.2698Z" fill="white"/>
<path fill-rule="evenodd" clip-rule="evenodd" d="M110.971 26.7059C116.315 26.7059 120.647 22.3736 120.647 17.0294C120.647 11.6852 116.315 7.35293 110.971 7.35293C105.626 7.35293 101.294 11.6852 101.294 17.0294C101.294 22.3736 105.626 26.7059 110.971 26.7059ZM108 11.0727V23.2729C108 23.7426 108.546 24.0006 108.909 23.702L116.886 17.1326C117.169 16.8995 117.153 16.461 116.853 16.2495L108.876 10.6186C108.508 10.3587 108 10.622 108 11.0727Z" fill="white"/>
</svg>
